<?xml version="1.0" encoding="utf-8"?>
<!-- Generator: Adobe Illustrator 26.4.1, SVG Export Plug-In . SVG Version: 6.00 Build 0)  -->
<svg version="1.1" id="Layer_1" xmlns="http://www.w3.org/2000/svg" xmlns:xlink="http://www.w3.org/1999/xlink" x="0px" y="0px"
	 viewBox="0 0 1080 160" style="enable-background:new 0 0 1080 160;" xml:space="preserve">
<style type="text/css">
	.st0{fill-rule:evenodd;clip-rule:evenodd;fill:#0967B2;}
	.st1{fill-rule:evenodd;clip-rule:evenodd;fill:#1067B2;}
	.st2{fill-rule:evenodd;clip-rule:evenodd;fill:#DA2228;}
	.st3{fill:#0066B3;}
	.st4{fill:none;stroke:#000000;stroke-width:2.1514;stroke-miterlimit:10;}
	.st5{fill:#E42A2D;}
	.st6{fill:#231F20;}
</style>
<g>
	<path class="st0" d="M142.54-0.33c0.52,0.22,1.27,0.23,1.77,0.49c-1.79,22.67-15.81,33.96-41.48,32.24v100.5
		c18.4-4.31,29.96-16.19,38.59-30.55c0.74,0.27,1.44,0.58,2.16,0.87c-5.6,23.43-18.26,41.32-40.11,48.53
		c-10.91,3.61-26.47,4.3-39.39,1.6c-11.04-2.21-21.39-7.05-30.17-14.11c-12.12-9.83-20.86-23.71-22.3-44.2
		c-0.46-6.78,0.08-13.59,1.6-20.22c2.69-11.77,8.21-21.4,14.77-29.6S42.58,30.13,51,23.97c-10.59-2.17-22.42-1.38-30.3,2.77
		c-6.63,3.38-11.83,8.85-16,15.04c-0.52,0.75-1.39,2.35-1.93,2.48s-1.22-0.1-1.77,0c2.22-15.05,8.44-26.03,18.55-33.38
		C29.5,3.72,43.83-0.21,61.19,0.95c19.78,1.3,36.32,7.29,54.87,10.02c3.94,0.59,8.08,0.98,11.89,0.4c7.5-1.14,11.09-5.89,14.4-11.47
		c0.06-0.07,0-0.22,0.15-0.23 M34.63,70.42c-1.89,23.07,6.17,38.8,17.99,49.01c2.31-1.96,4.16-4.4,5.45-7.14
		c1.33-3.05,1.7-6.78,1.7-10.99V25.33c-0.92-0.07-1.83-0.21-2.73-0.4C45.83,35.88,36.32,49.82,34.63,70.42 M82.94,29.35v29.67
		c0,10.01,0.6,20.06-0.97,28.8c-3.02,16.92-13.82,25.88-24.31,35.2c8.8,7.77,22.57,12.11,39.71,10.83V32.06
		c-4.8-0.94-9.51-1.99-14.35-2.87C83.02,29.05,82.9,29.19,82.94,29.35"/>
	<path class="st1" d="M165,6.32c4.38,0,6.96,1.96,8.26,5.37c2.51,6.61,0.86,17.2-4.65,19.58c-3.92,1.7-9,0-11.08-2.96
		c-1.5-2.22-2.16-5.28-2.15-8.67c0-7.39,1.94-13.28,9.6-13.31"/>
	<path class="st0" d="M199.97,45.54c1.82-3.07,3.35-6.46,6.5-8.25c2.92-1.67,7.01-0.69,9.07,0.89c2.22,1.7,3.74,4.24,4.9,6.79
		c4.59,10.35,5.6,27.92,2.48,41.02c-1.47,6.21-4.48,12.07-8.99,14.35c-3.4,1.63-7.45,1.06-10.27-1.45c-2.34-2.34-3.5-5.73-4.42-9.32
		c-0.18,3.74,0,7.81-0.07,11.64c-6.5-0.69-12.54-1.86-19.74-1.84v-2.96h3.68c0.19-27.79,0-55.92,0.09-83.84h-3.77v-2.9
		c6.67-0.22,13.31-0.88,19.89-1.99c0.7-0.13,0.6-0.06,0.65,0.8c0.36,5.94,0,12.07,0,17.96L199.97,45.54z M200.06,55.34
		c-0.19,4.11-0.09,8.85-0.09,14.03c0,4.6-0.08,9.43,0.09,13.97c0.04,2.13,0.28,4.25,0.72,6.34c0.41,1.78,1.35,4.09,3.13,3.94
		c1.56-0.15,1.99-2.71,2.24-4.57c0.85-6.27,0.41-13.75,0.41-20.23V55.1c0.06-2.17-0.05-4.34-0.33-6.49c-0.34-2.4-0.87-4.55-2.8-4.18
		C200.3,45.03,200.23,51.72,200.06,55.34"/>
	<path class="st2" d="M530.49,35.19c0.2,7.52,0.37,15.46,0.4,22.87h-1.53c-1.83-6.24-4.11-13.03-8.65-17.08
		c-2.28-2.02-7.48-4.24-9.07-0.32c-1.52,3.73-0.18,7.77,1.93,9.6c0.94,0.74,1.93,1.41,2.96,2.02c2.9,2,5.98,3.87,8.5,6.4
		c3.5,3.59,5.84,8.15,6.74,13.08c1.02,6.01,0.94,12.15-0.25,18.12c-1.16,5.13-3.64,9.98-8.58,11.63c-1.42,0.51-2.91,0.82-4.42,0.9
		c-2.16,0-3.74-1.07-5.21-1.94c-1.47-0.86-2.95-1.7-4.4-2.73c-1.47,1.02-2.94,2.27-4.5,3.52c-0.95,0.76-1.55,1.43-3.46,1.14
		c-0.09-8.21-0.45-16.56-0.4-24.65h1.13c0.89,2.4,1.54,4.87,2.49,7.14c1.69,4.36,4.42,8.24,7.94,11.31c0.9,0.75,1.89,1.37,2.96,1.85
		c1.19,0.6,2.51,0.94,3.85,0.97c2.3-0.12,3.81-2.44,4-4.74c0.5-5.7-2.8-7.75-6.18-10.11c-2.34-1.6-4.73-3.44-7.14-5.14
		c-0.83-0.49-1.63-1.02-2.4-1.6c-1.61-1.61-2.94-3.48-3.93-5.53c-3.1-6.06-3.64-16.43-1.53-24.15c1.27-4.62,3.42-9.41,7.46-11.4
		c2.52-1.08,5.33-1.22,7.94-0.4c2.46,0.7,4,1.86,6.18,3.2c1.87-1.27,3.65-2.7,5.53-4L530.49,35.19z"/>
	<path class="st2" d="M380.15,97.04c1.28,0.1,2.57,0.13,3.86,0.09v3.04h-23.12v-3.03h2.4v-41c0.09-2.24,0.06-4.49-0.09-6.73
		c-0.19-1.94-0.7-4.38-2.34-4.5c-2-0.15-2.76,2.23-3.2,3.85c-0.53,1.97-0.88,3.98-1.04,6.02c-0.37,4.47-0.08,9.55-0.08,14.03v28.24
		c0.86,0.1,1.73,0.14,2.59,0.1v3.04h-23.26v-3.04h3.52V40.41h-3.52v-3.37c7.2-0.14,13.39-1.26,20.61-1.37c0.2,3.91,0,8.16,0.08,12.2
		c2.19-5.26,4.8-11.92,11.39-12.43c8.34-0.65,10.71,6.4,11.63,13.55c0.65,4.92,0.57,10.4,0.57,15.66L380.15,97.04z"/>
	<path class="st2" d="M426.93,72.83h-22.55c0,7.51-0.27,16.39,2.4,21.49c0.68,1.49,2.01,2.59,3.6,2.98c0.55,0.2,1.11,0.36,1.69,0.48
		c3.54,0.23,6.57-2.91,8.26-5.22c1.9-2.75,3.41-5.75,4.49-8.91c0.45,0.67,1.31,1.05,1.37,1.76c-0.16,0.62-0.4,1.22-0.73,1.77
		c-3.31,7.29-7.16,15.25-17.24,15.25c-4.16,0.07-8.21-1.3-11.48-3.86c-5.51-4.48-8.48-12.06-9.6-21.02
		c-1.21-9.42,0-19.95,2.56-27.12s6.68-14.35,16-14.99c3.99-0.3,7.92,1.1,10.83,3.86c2.64,2.34,4.46,5.6,5.94,8.74
		c3.2,6.78,4.53,15.03,4.5,24.8 M410.4,44.9c-0.12-2.58-0.41-5.46-2.08-6.25c-3.02-1.44-3.57,3.37-3.78,6
		c-0.61,7.86,0,17.6-0.23,25.03h6.09c-0.28-7.78,0.38-16.67,0-24.8"/>
	<path class="st0" d="M129.51,36.57v12.91c2.4-5.66,4.67-13.31,12.76-12.43c1.36,0.19,2.63,0.78,3.64,1.7
		c5.34,5.03,5.94,20.71,0.64,25.98c-1.2,1.21-2.87,1.85-4.58,1.76c-2.05-0.28-3.91-1.38-5.14-3.05c-2.06-2.65-2.9-7.12-2.89-11.2
		c0-1.14,0.28-2.54,0.42-3.77c0.14-1.23,0.53-2.59-0.56-3.2c-1.48,0.86-1.85,2.86-2.26,4.58c-1.27,5.38-1.19,12.35-1.19,19.25v27.26
		c1.52,0.18,3.38,0,5.05,0.08v2.96h-26.15v-2.96h3.54c0.18-18.22,0-36.8,0.07-55.12h-3.61v-3.2c6.74-0.52,13.47-1.07,20.29-1.52"/>
	<path class="st0" d="M173.58,36.57c0.38,19.59,0.06,39.86,0.16,59.77c1.16,0.18,2.66,0,3.93,0.08v2.96h-25.03v-2.96h3.54
		c0.18-18.19,0.04-36.72,0.09-55.04h-3.62v-3.29C160.1,38.04,166.66,37.13,173.58,36.57"/>
	<path class="st0" d="M254.92,41.37h-3.85v-3.29c7.27-0.08,13.46-1.26,20.8-1.27v59.6h4v2.96c-7.38,0-13.75,1.02-20.23,1.92
		c-0.18-3.87,0-8.1-0.08-12.1c-2.68,5.45-5.22,11.39-12.19,12c-8.04,0.73-10.34-5.65-11.55-12.43c-1.26-6.98-0.96-15.04-0.96-23.25
		V41.37h-3.53v-3.29c6.54-0.22,13.87-0.59,20-1.44c0.52-0.07,0.72-0.42,0.8,0.54c0.34,4.16,0,9.52,0,13.41v35.94
		c0,2.86-0.14,6.59,3.13,5.94c2.74-0.55,3.43-6.93,3.61-10.12c0.29-4.92,0.08-9.68,0.08-13.6L254.92,41.37z"/>
	<path class="st0" d="M323.03,96.41h3.86v2.96h-23.2v-2.96h2.33c0.14-12.52,0.09-26.4,0.08-39.56c0-1.94,0-4.37-0.16-6.4
		c-0.16-2.03-0.54-4.58-2.25-4.73c-2.01-0.19-2.82,2.05-3.28,3.61c-1.6,5.25-1.12,12.8-1.12,19.56v27.53h2.55v2.96h-23.32v-2.96
		h3.53V41.37h-3.53v-3.29c7.2-0.12,13.42-1.28,20.8-1.28v11.8c2.18-5.28,4.66-10.91,10.83-12c2.41-0.42,4.9,0.06,6.97,1.37
		c3.02,1.94,4.49,6.4,5.23,10.91c0.8,4.8,0.71,10.12,0.71,15.31c0,11.25,0,22.31,0,32.18"/>
	<path class="st2" d="M429.97,37.04h23.11v3.37h-2.32c2.85,14.13,5.83,28.13,8.8,42.13c0.95-4.56,1.87-9.07,2.81-13.74
		c0.18-0.63,0.31-1.27,0.4-1.91c-0.14-1.11-0.39-2.21-0.73-3.28c-1.54-7.69-3.05-15.62-4.58-23.2h-3.04v-3.37h24v3.37h-3.93
		c2.72,13.67,5.6,27.2,8.34,40.8c1.92-8.58,3.86-18.47,5.71-27.63c0.63-3.2,1.38-6.34,1.12-9.95c-0.14-2.01-0.8-3.52-3.2-3.2v-3.38
		h10.91v3.37c-0.56,0.02-1.1,0.15-1.6,0.4c-3.54,1.82-4.33,8.8-5.22,13.25c-3.06,15.31-6.16,31.2-9.23,46.12h-11.56
		c-1.97-9.21-3.87-18.47-5.77-27.75c-2.09,9.11-3.88,18.53-5.85,27.75h-12.2c-4.14-20-8.45-39.79-12.59-59.77h-3.45v-3.12
		C429.89,37.16,429.89,37.05,429.97,37.04"/>
	<path class="st2" d="M560.97,70.51v4.64c-0.3,0.06-0.66-0.23-0.95-0.4c-1.82-1.09-4.98-1.84-7.14-0.39
		c-5.54,3.7-5.6,20.27,2.8,20.37c2.3,0,3.82-0.98,5.3-1.78v4.59c-3.34,2.18-8.87,1.79-11.55-0.56c-5.42-4.8-5.22-19.12-0.39-24.71
		c1.43-1.67,3.42-2.76,5.6-3.06C556.82,69.01,559.02,69.47,560.97,70.51"/>
	<path class="st2" d="M571.96,69.68c1.32-0.07,2.64,0.15,3.86,0.66c8.2,3.74,7.81,24.71-0.41,28.64c-2.81,1.18-6.03,0.74-8.42-1.14
		c-5.04-4.25-5.23-18.63-1.2-24.46C567.14,71.24,569.43,69.87,571.96,69.68 M570.28,74.35c-5.06,2.64-5.38,18.84,0.47,20.87
		c1.09,0.26,2.22,0.23,3.29-0.1c4.46-1.82,5.4-13.6,2.57-18.54c-0.98-1.87-3.04-2.91-5.13-2.58
		C571.07,74.08,570.66,74.19,570.28,74.35"/>
	<path class="st2" d="M599,75.79c0.87-1.66,1.54-3.78,2.97-5.05c1.96-1.64,4.88-1.39,6.53,0.57c0.21,0.25,0.39,0.51,0.54,0.8
		c1.47,3.02,0.95,8.32,0.95,13.06v13.97h-4.16v-20.2c0-2,0.08-5.08-1.6-5.15c-1.39-0.05-2.32,1.94-2.79,2.89
		c-0.35,0.65-0.62,1.35-0.9,1.93c-0.36,0.61-0.66,1.25-0.88,1.92c-0.12,1.55-0.12,3.1,0,4.65v13.97h-4.26v-20.2
		c0-2.07,0.18-5.07-1.51-5.15c-1.94-0.09-3.07,3.44-3.69,4.8c-0.36,0.61-0.65,1.25-0.88,1.92c-0.12,1.55-0.12,3.1,0,4.65v13.97
		h-4.26V70.17h3.53c0.05,1.78,0.19,3.46,0.16,5.3c1.48-2.29,2.15-5.6,5.54-5.85s4.72,2.5,4.74,6.17"/>
	<path class="st2" d="M537.71,87.43c5.9-1.09,6.4,9.75,1.69,10.98c-2.99,0.8-4.9-2.15-5.14-4.57c-0.26-1.99,0.36-4,1.7-5.5
		c0.49-0.45,1.1-0.76,1.76-0.87"/>
	<path class="st3" d="M159.86,130.28l-4.95-14.25h-0.09c0.13,2.13,0.19,4.12,0.19,5.95v8.3h-2.53v-17.06h3.93l4.74,13.6h0.07
		l4.88-13.6h3.94v17.06h-2.69v-8.44c0-0.84,0-1.95,0.06-3.31c0.06-1.36,0.08-2.18,0.11-2.47h-0.1l-5.12,14.23H159.86z"/>
	<path class="st3" d="M182.32,130.28l-0.54-1.8h-0.1c-0.49,0.67-1.14,1.22-1.88,1.6c-0.76,0.31-1.58,0.45-2.4,0.42
		c-1.09,0.06-2.16-0.31-2.97-1.03c-0.75-0.78-1.13-1.83-1.06-2.9c-0.07-1.19,0.49-2.34,1.48-3.01c1.37-0.78,2.94-1.16,4.51-1.1
		l2.23-0.07v-0.69c0.05-0.67-0.16-1.33-0.58-1.85c-0.48-0.45-1.13-0.67-1.78-0.62c-0.65,0-1.29,0.1-1.9,0.3
		c-0.6,0.19-1.18,0.42-1.75,0.69l-0.89-1.96c0.73-0.37,1.5-0.64,2.3-0.8c0.77-0.18,1.56-0.28,2.35-0.29
		c1.33-0.09,2.64,0.29,3.71,1.07c0.9,0.88,1.37,2.11,1.26,3.37v8.7L182.32,130.28z M178.23,128.41c0.87,0.05,1.73-0.23,2.4-0.8
		c0.62-0.61,0.95-1.46,0.9-2.34v-1.12l-1.66,0.06c-0.98-0.03-1.95,0.19-2.82,0.65c-0.59,0.39-0.92,1.06-0.88,1.77
		c-0.03,0.5,0.16,0.99,0.52,1.34C177.13,128.3,177.68,128.46,178.23,128.41L178.23,128.41z"/>
	<path class="st3" d="M192.9,128.3c0.68,0,1.36-0.11,2.01-0.32v2.06c-0.38,0.16-0.77,0.27-1.18,0.34c-0.49,0.09-0.99,0.14-1.49,0.14
		c-2.59,0-3.89-1.37-3.89-4.1v-6.95h-1.77v-1.22l1.9-1l0.93-2.74h1.7v2.87h3.67v2.08h-3.67v6.9c-0.05,0.54,0.13,1.07,0.5,1.46
		C191.96,128.14,192.43,128.31,192.9,128.3z"/>
	<path class="st3" d="M205.56,130.28l-0.54-1.8h-0.1c-0.49,0.67-1.14,1.22-1.88,1.6c-0.76,0.3-1.58,0.45-2.4,0.42
		c-1.09,0.06-2.16-0.31-2.97-1.03c-0.75-0.78-1.13-1.83-1.06-2.9c-0.07-1.19,0.49-2.34,1.48-3.01c1.37-0.78,2.94-1.16,4.51-1.1
		l2.22-0.07v-0.69c0.05-0.67-0.15-1.33-0.58-1.85c-0.48-0.45-1.13-0.67-1.79-0.62c-0.64,0-1.28,0.1-1.9,0.3
		c-0.6,0.19-1.18,0.42-1.75,0.69l-0.89-1.96c0.73-0.37,1.5-0.64,2.3-0.8c0.77-0.18,1.57-0.28,2.36-0.29
		c1.33-0.09,2.64,0.29,3.71,1.07c0.9,0.88,1.37,2.11,1.26,3.37v8.7L205.56,130.28z M201.48,128.41c0.87,0.05,1.73-0.23,2.4-0.8
		c0.62-0.61,0.95-1.46,0.9-2.34v-1.12l-1.66,0.06c-0.98-0.03-1.95,0.19-2.82,0.65c-0.59,0.39-0.92,1.06-0.88,1.77
		c-0.03,0.5,0.16,0.98,0.51,1.34c0.45,0.35,1.02,0.5,1.58,0.44H201.48z"/>
	<path class="st3" d="M217.85,130.28v-17.06h2.78v14.67h7.2v2.4L217.85,130.28z"/>
	<path class="st3" d="M241.95,123.8c0.11,1.79-0.46,3.55-1.6,4.94c-1.17,1.22-2.82,1.87-4.51,1.78c-1.12,0.03-2.23-0.25-3.2-0.8
		c-0.93-0.55-1.67-1.37-2.13-2.34c-0.52-1.11-0.78-2.33-0.75-3.55c-0.11-1.78,0.46-3.53,1.6-4.9c1.19-1.23,2.86-1.88,4.57-1.78
		c1.67-0.08,3.29,0.58,4.43,1.8C241.48,120.3,242.05,122.04,241.95,123.8z M232.55,123.8c0,2.99,1.1,4.48,3.3,4.47
		c2.2-0.01,3.29-1.5,3.26-4.47c0-2.94-1.1-4.42-3.29-4.42c-0.98-0.08-1.93,0.35-2.5,1.14C232.75,121.52,232.48,122.66,232.55,123.8z
		"/>
	<path class="st3" d="M247.74,123.46l1.55-1.94l3.9-4.15h3.16l-5.18,5.54l5.51,7.36h-3.2l-4.14-5.66l-1.5,1.24v4.42h-2.72v-18.15
		h2.72v8.86l-0.14,2.48L247.74,123.46z"/>
	<path class="st3" d="M266.83,130.28l-0.55-1.8h-0.09c-0.49,0.67-1.14,1.22-1.88,1.6c-0.76,0.3-1.58,0.45-2.4,0.42
		c-1.09,0.07-2.16-0.3-2.97-1.03c-0.75-0.77-1.14-1.83-1.07-2.9c-0.06-1.19,0.5-2.33,1.48-3.01c1.38-0.77,2.94-1.16,4.52-1.1
		l2.22-0.07v-0.69c0.05-0.67-0.15-1.33-0.58-1.85c-0.49-0.44-1.14-0.67-1.79-0.62c-0.65,0-1.29,0.1-1.9,0.3
		c-0.6,0.19-1.18,0.42-1.74,0.69l-0.89-1.96c0.73-0.37,1.5-0.64,2.3-0.8c0.77-0.19,1.57-0.28,2.36-0.29
		c1.33-0.09,2.64,0.29,3.71,1.07c0.9,0.88,1.36,2.11,1.26,3.37v8.7L266.83,130.28z M262.74,128.41c0.87,0.06,1.73-0.23,2.4-0.8
		c0.62-0.61,0.95-1.46,0.9-2.34v-1.12l-1.66,0.06c-0.98-0.03-1.95,0.19-2.82,0.65c-0.59,0.39-0.92,1.06-0.88,1.77
		c-0.03,0.5,0.15,0.99,0.51,1.34C261.64,128.3,262.19,128.46,262.74,128.41L262.74,128.41z"/>
	<path class="st3" d="M275.36,130.28h-2.74v-18.15h2.74V130.28z"/>
	<path class="st3" d="M293.14,130.28l-4.94-14.25h-0.1c0.13,2.13,0.2,4.12,0.2,5.95v8.3h-2.53v-17.06h3.93l4.74,13.6h0.07l4.87-13.6
		h3.94v17.06h-2.68v-8.44c0-0.84,0-1.95,0.06-3.31c0.06-1.36,0.08-2.18,0.11-2.47h-0.1l-5.12,14.23H293.14z"/>
	<path class="st3" d="M313.16,130.51c-1.75,0.1-3.45-0.54-4.7-1.76c-1.18-1.31-1.79-3.04-1.7-4.8c-0.09-1.8,0.48-3.56,1.6-4.97
		c1.1-1.22,2.69-1.89,4.33-1.81c1.49-0.07,2.94,0.5,4,1.55c1.04,1.17,1.57,2.7,1.48,4.26v1.49h-8.59c-0.03,1.05,0.33,2.08,1.02,2.88
		c0.72,0.7,1.7,1.05,2.7,0.98c0.72,0,1.43-0.07,2.13-0.22c0.73-0.17,1.44-0.41,2.12-0.72v2.22c-0.65,0.31-1.33,0.54-2.03,0.68
		C314.73,130.46,313.95,130.52,313.16,130.51z M312.66,119.22c-0.78-0.04-1.54,0.25-2.09,0.8c-0.57,0.67-0.91,1.52-0.94,2.4h5.86
		c0.03-0.87-0.25-1.72-0.8-2.4C314.15,119.47,313.42,119.18,312.66,119.22L312.66,119.22z"/>
	<path class="st3" d="M332.64,130.28h-2.75v-7.94c0.06-0.79-0.15-1.57-0.6-2.22c-0.49-0.53-1.19-0.8-1.91-0.74
		c-0.96-0.08-1.9,0.3-2.54,1.02c-0.63,1.03-0.91,2.24-0.8,3.44v6.4h-2.75v-12.87h2.15l0.38,1.69h0.1c0.4-0.62,0.98-1.11,1.66-1.42
		c0.75-0.34,1.57-0.52,2.4-0.5c3.1,0,4.65,1.57,4.64,4.72L332.64,130.28z"/>
	<path class="st3" d="M335.13,136.02c-0.7,0.02-1.39-0.08-2.06-0.3v-2.17c0.52,0.14,1.06,0.21,1.6,0.22c1.17,0,1.75-0.66,1.75-1.98
		v-14.4h2.74v14.59c0.08,1.11-0.3,2.2-1.04,3.02C337.3,135.72,336.22,136.09,335.13,136.02z M336.29,113.94
		c-0.03-0.42,0.12-0.83,0.41-1.14c0.57-0.63,1.54-0.68,2.17-0.11c0.35,0.32,0.54,0.78,0.5,1.25c0.02,0.41-0.12,0.8-0.4,1.1
		c-0.66,0.53-1.61,0.53-2.27,0C336.42,114.75,336.27,114.35,336.29,113.94z"/>
	<path class="st3" d="M351.19,130.28l-0.54-1.8h-0.1c-0.49,0.67-1.14,1.22-1.88,1.6c-0.76,0.3-1.58,0.45-2.4,0.42
		c-1.09,0.06-2.16-0.31-2.97-1.03c-0.75-0.78-1.13-1.83-1.06-2.9c-0.08-1.19,0.47-2.34,1.46-3.02c1.37-0.78,2.94-1.16,4.51-1.1
		l2.22-0.07v-0.69c0.05-0.67-0.15-1.33-0.58-1.85c-0.48-0.45-1.13-0.67-1.79-0.62c-0.64,0-1.28,0.1-1.9,0.3
		c-0.6,0.19-1.18,0.42-1.75,0.69l-0.89-1.96c0.73-0.37,1.5-0.64,2.3-0.8c0.77-0.18,1.56-0.28,2.35-0.29
		c1.33-0.09,2.64,0.29,3.71,1.07c0.9,0.88,1.37,2.11,1.26,3.37v8.7L351.19,130.28z M347.11,128.41c0.87,0.05,1.73-0.23,2.4-0.8
		c0.62-0.61,0.95-1.46,0.9-2.34v-1.12l-1.66,0.06c-0.98-0.03-1.95,0.19-2.82,0.65c-0.59,0.39-0.92,1.06-0.88,1.77
		c-0.03,0.5,0.16,0.98,0.51,1.34c0.45,0.34,1.01,0.5,1.57,0.44H347.11z"/>
	<path class="st3" d="M368.33,130.28h-2.75v-7.94c0.06-0.79-0.15-1.57-0.6-2.22c-0.49-0.53-1.19-0.8-1.91-0.74
		c-0.96-0.08-1.9,0.3-2.54,1.02c-0.63,1.03-0.91,2.24-0.8,3.44v6.4h-2.75v-12.87h2.16l0.38,1.69h0.14c0.4-0.62,0.98-1.11,1.66-1.42
		c0.75-0.34,1.57-0.52,2.4-0.5c3.1,0,4.65,1.57,4.64,4.72L368.33,130.28z"/>
	<path class="st3" d="M383.04,117.38v1.5l-2.21,0.41c0.22,0.31,0.39,0.65,0.5,1.01c0.13,0.41,0.2,0.83,0.2,1.26
		c0.05,1.2-0.45,2.36-1.38,3.14c-1.09,0.82-2.43,1.22-3.79,1.14c-0.38,0-0.75-0.03-1.12-0.1c-0.5,0.25-0.84,0.73-0.89,1.29
		c-0.01,0.29,0.16,0.55,0.42,0.66c0.48,0.18,1,0.26,1.52,0.22h2.25c1.15-0.08,2.3,0.24,3.25,0.9c0.76,0.65,1.17,1.62,1.1,2.62
		c0.05,1.37-0.64,2.66-1.81,3.38c-1.59,0.89-3.4,1.3-5.22,1.19c-1.4,0.08-2.79-0.24-4-0.94c-0.9-0.57-1.44-1.59-1.39-2.66
		c-0.02-0.74,0.25-1.46,0.75-2c0.57-0.58,1.31-0.98,2.11-1.13c-0.37-0.15-0.68-0.42-0.9-0.75c-0.5-0.7-0.48-1.64,0.05-2.31
		c0.35-0.4,0.76-0.73,1.22-0.99c-0.66-0.3-1.22-0.79-1.6-1.41c-0.42-0.69-0.63-1.48-0.62-2.28c-0.07-1.23,0.41-2.42,1.32-3.26
		c1.08-0.83,2.42-1.24,3.78-1.15c0.38,0,0.76,0.03,1.14,0.07c0.3,0.04,0.61,0.09,0.9,0.16L383.04,117.38z M372.9,132.28
		c-0.01,0.57,0.3,1.1,0.8,1.37c0.69,0.36,1.46,0.52,2.24,0.48c1.15,0.07,2.3-0.15,3.34-0.64c0.66-0.31,1.08-0.97,1.1-1.7
		c0.04-0.48-0.19-0.94-0.6-1.2c-0.71-0.29-1.47-0.41-2.23-0.35h-2.08c-0.67-0.04-1.33,0.16-1.87,0.55
		C373.14,131.15,372.88,131.7,372.9,132.28z M374.08,121.55c-0.05,0.68,0.18,1.35,0.62,1.86c0.48,0.46,1.13,0.7,1.79,0.66
		c1.6,0,2.4-0.85,2.4-2.54c0.05-0.7-0.16-1.39-0.58-1.94c-0.47-0.48-1.12-0.73-1.79-0.68c-0.67-0.05-1.33,0.2-1.8,0.68
		C374.26,120.13,374.03,120.84,374.08,121.55z"/>
	<path class="st3" d="M388.07,123.46l1.55-1.94l3.9-4.15h3.2l-5.19,5.54l5.51,7.36h-3.2l-4.14-5.66l-1.5,1.24v4.42h-2.71v-18.15
		h2.71v8.86l-0.14,2.48L388.07,123.46z"/>
	<path class="st3" d="M407.14,130.28l-0.55-1.8h-0.09c-0.49,0.67-1.14,1.22-1.88,1.6c-0.76,0.3-1.58,0.45-2.4,0.42
		c-1.09,0.07-2.16-0.31-2.97-1.03c-0.75-0.77-1.14-1.83-1.07-2.9c-0.06-1.19,0.5-2.33,1.48-3.01c1.38-0.77,2.94-1.16,4.52-1.1
		l2.22-0.07v-0.69c0.05-0.67-0.15-1.33-0.58-1.85c-0.49-0.44-1.14-0.67-1.79-0.62c-0.64,0-1.28,0.1-1.9,0.3
		c-0.6,0.19-1.18,0.42-1.75,0.69l-0.89-1.96c0.73-0.37,1.5-0.64,2.3-0.8c0.77-0.19,1.57-0.28,2.36-0.29
		c1.33-0.09,2.64,0.29,3.71,1.07c0.9,0.88,1.37,2.11,1.26,3.37v8.7L407.14,130.28z M403.06,128.41c0.87,0.06,1.73-0.23,2.4-0.8
		c0.63-0.61,0.96-1.46,0.9-2.34v-1.12l-1.66,0.06c-0.98-0.03-1.95,0.19-2.82,0.65c-0.59,0.39-0.92,1.06-0.88,1.77
		c-0.03,0.5,0.15,0.99,0.51,1.34c0.44,0.34,1,0.5,1.56,0.44H403.06z"/>
	<path class="st3" d="M422.04,130.28l-0.38-1.7h-0.12c-0.39,0.61-0.95,1.1-1.6,1.42c-0.75,0.35-1.57,0.52-2.4,0.51
		c-1.28,0.1-2.54-0.32-3.5-1.17c-0.84-0.98-1.25-2.25-1.15-3.54v-8.43h2.76v7.95c-0.06,0.79,0.15,1.58,0.61,2.22
		c0.48,0.53,1.19,0.81,1.9,0.74c0.96,0.08,1.9-0.31,2.54-1.03c0.63-1.04,0.91-2.25,0.8-3.46v-6.4h2.75v12.91L422.04,130.28z"/>
	<path class="st3" d="M434.61,130.28v-17.06h2.78v17.06H434.61z"/>
	<path class="st3" d="M452.96,130.28h-2.75v-7.94c0.06-0.79-0.15-1.57-0.6-2.22c-0.49-0.53-1.19-0.8-1.9-0.74
		c-0.96-0.08-1.91,0.3-2.54,1.02c-0.63,1.03-0.91,2.24-0.8,3.44v6.4h-2.74v-12.87h2.15l0.38,1.69h0.14c0.4-0.62,0.98-1.11,1.66-1.42
		c0.75-0.34,1.57-0.52,2.4-0.5c3.1,0,4.65,1.57,4.64,4.72L452.96,130.28z"/>
	<path class="st3" d="M461.13,130.51c-1.47,0.07-2.87-0.59-3.77-1.75c-1.81-3.03-1.81-6.82,0-9.85c0.9-1.17,2.32-1.83,3.8-1.77
		c1.53-0.08,2.99,0.63,3.87,1.88h0.14c-0.11-0.73-0.18-1.46-0.2-2.2v-4.7h2.76v18.15h-2.15l-0.48-1.7h-0.13
		C464.12,129.86,462.66,130.59,461.13,130.51z M461.87,128.3c0.92,0.08,1.83-0.27,2.46-0.95c0.6-0.92,0.88-2,0.8-3.09v-0.38
		c0.1-1.21-0.18-2.42-0.8-3.46c-0.61-0.72-1.54-1.1-2.48-1.02c-0.9-0.04-1.75,0.41-2.23,1.17c-0.59,1.01-0.86,2.18-0.8,3.34
		c-0.07,1.14,0.19,2.28,0.75,3.27C460.07,127.93,460.95,128.36,461.87,128.3L461.87,128.3z"/>
	<path class="st3" d="M483.15,123.8c0.11,1.79-0.46,3.55-1.6,4.94c-1.17,1.22-2.82,1.87-4.51,1.78c-1.12,0.03-2.23-0.25-3.2-0.8
		c-0.93-0.55-1.67-1.37-2.14-2.34c-0.52-1.11-0.77-2.33-0.74-3.55c-0.11-1.78,0.46-3.53,1.6-4.9c1.19-1.22,2.85-1.86,4.54-1.76
		c1.67-0.08,3.29,0.58,4.43,1.8C482.66,120.31,483.24,122.04,483.15,123.8z M473.75,123.8c0,2.98,1.1,4.47,3.3,4.47
		s3.26-1.49,3.26-4.47s-1.1-4.42-3.29-4.42c-0.98-0.08-1.93,0.35-2.5,1.14c-0.59,0.99-0.88,2.12-0.82,3.27H473.75z"/>
	<path class="st3" d="M497.6,130.28h-2.75v-7.94c0.06-0.79-0.15-1.57-0.6-2.22c-0.49-0.53-1.19-0.8-1.91-0.74
		c-0.96-0.08-1.9,0.3-2.54,1.02c-0.63,1.03-0.91,2.24-0.8,3.44v6.4h-2.74v-12.87h2.15l0.38,1.69h0.14c0.4-0.62,0.98-1.11,1.66-1.42
		c0.75-0.34,1.57-0.52,2.4-0.5c3.1,0,4.65,1.57,4.64,4.72L497.6,130.28z"/>
	<path class="st3" d="M507.05,130.51c-1.75,0.1-3.45-0.54-4.7-1.76c-1.18-1.31-1.79-3.04-1.7-4.8c-0.09-1.8,0.48-3.56,1.6-4.97
		c1.1-1.22,2.69-1.89,4.33-1.81c1.49-0.07,2.94,0.5,4,1.55c1.04,1.17,1.57,2.7,1.48,4.26v1.49h-8.59c-0.03,1.05,0.33,2.08,1.02,2.88
		c0.71,0.69,1.68,1.04,2.66,0.98c0.72,0,1.43-0.07,2.13-0.22c0.73-0.17,1.44-0.41,2.12-0.72v2.22c-0.65,0.31-1.33,0.54-2.03,0.68
		C508.6,130.45,507.83,130.52,507.05,130.51z M506.55,119.22c-0.78-0.04-1.54,0.25-2.09,0.8c-0.57,0.67-0.91,1.52-0.94,2.4h5.86
		c0.03-0.87-0.25-1.72-0.8-2.4C508.05,119.47,507.31,119.18,506.55,119.22L506.55,119.22z"/>
	<path class="st3" d="M523.85,126.6c0.06,1.14-0.45,2.23-1.37,2.9c-1.18,0.74-2.56,1.1-3.94,1.01c-1.42,0.05-2.84-0.22-4.14-0.8
		v-2.4c1.32,0.65,2.76,1.01,4.23,1.05c1.69,0,2.54-0.5,2.54-1.53c0.01-0.29-0.09-0.58-0.28-0.8c-0.27-0.27-0.58-0.5-0.92-0.67
		c-0.58-0.31-1.18-0.57-1.79-0.8c-1.11-0.36-2.14-0.94-3.01-1.73c-0.54-0.62-0.83-1.42-0.8-2.24c-0.03-1.03,0.47-2.01,1.34-2.58
		c1.09-0.66,2.36-0.98,3.63-0.91c1.48-0.01,2.95,0.31,4.3,0.92l-0.89,2.06c-1.1-0.51-2.29-0.8-3.5-0.86c-1.45,0-2.18,0.42-2.18,1.24
		c0.01,0.41,0.22,0.8,0.57,1.02c0.78,0.47,1.61,0.86,2.47,1.15c0.81,0.29,1.59,0.67,2.32,1.14c0.45,0.3,0.81,0.71,1.07,1.18
		C523.75,125.47,523.87,126.03,523.85,126.6z"/>
	<path class="st3" d="M526.65,113.94c-0.03-0.42,0.12-0.83,0.41-1.14c0.31-0.28,0.73-0.42,1.14-0.39c0.76-0.08,1.44,0.46,1.53,1.22
		c0.01,0.1,0.01,0.2,0,0.3c0.02,0.41-0.12,0.81-0.4,1.1c-0.31,0.28-0.71,0.43-1.13,0.4c-0.42,0.03-0.83-0.12-1.14-0.4
		C526.77,114.75,526.63,114.35,526.65,113.94z M529.56,130.26h-2.74v-12.89h2.74L529.56,130.26z"/>
	<path class="st3" d="M541.55,130.28l-0.54-1.8h-0.1c-0.49,0.67-1.14,1.22-1.88,1.6c-0.76,0.31-1.58,0.45-2.4,0.42
		c-1.09,0.06-2.16-0.31-2.97-1.03c-0.75-0.78-1.13-1.83-1.06-2.9c-0.07-1.19,0.49-2.34,1.48-3.01c1.37-0.78,2.94-1.16,4.51-1.1
		l2.23-0.07v-0.69c0.05-0.67-0.16-1.33-0.58-1.85c-0.48-0.45-1.13-0.67-1.78-0.62c-0.65,0-1.29,0.1-1.9,0.3
		c-0.6,0.19-1.18,0.42-1.75,0.69l-0.89-1.96c0.73-0.37,1.5-0.64,2.3-0.8c0.77-0.18,1.56-0.28,2.35-0.29
		c1.33-0.1,2.65,0.28,3.72,1.07c0.9,0.88,1.36,2.12,1.25,3.37v8.7L541.55,130.28z M537.47,128.41c0.87,0.05,1.73-0.23,2.4-0.8
		c0.62-0.61,0.95-1.46,0.9-2.34v-1.12l-1.66,0.06c-0.98-0.03-1.95,0.19-2.82,0.65c-0.59,0.39-0.93,1.06-0.88,1.77
		c-0.03,0.5,0.15,0.99,0.51,1.34C536.37,128.3,536.92,128.46,537.47,128.41L537.47,128.41z"/>
</g>
<line class="st4" x1="661.26" y1="160" x2="661.26" y2="0"/>
<g>
	<path class="st5" d="M878.25,20.76c-53.85,52.99-55.84,116.37-56.22,118.6h-39.58c14.98-75.71,67.95-118.6,67.95-118.6H878.25z"/>
	<path class="st5" d="M816.61,20.76c-3.25,2.05-12.17,8.44-15.78,11.59l20.8-0.04C802.71,49.5,765.91,94.45,757.07,160h-41.57
		C737,82.24,783.65,44.45,784.37,43.86l0.01-0.01h-68.87V20.76h66.42V0h96.36c-9.56,6.22-19.43,13.17-27.88,20.76H816.61z"/>
	<g>
		<g>
			<path class="st6" d="M906.55,22.17c-0.83-0.66-1.89-1.08-3.19-1.29c-0.29-0.05-0.6-0.09-0.96-0.1c-0.36-0.02-0.64-0.02-0.86-0.02
				h-9.2v21.76h4.12v-7.38h5.08c0.21,0,0.48-0.01,0.84-0.02c0.36-0.02,0.69-0.05,0.97-0.1c1.29-0.2,2.35-0.63,3.18-1.29
				c0.83-0.65,1.44-1.47,1.84-2.47c0.4-0.99,0.6-2.09,0.6-3.31c0-1.23-0.2-2.33-0.59-3.32C908,23.64,907.38,22.82,906.55,22.17
				 M904.66,29.2c-0.11,0.44-0.32,0.84-0.63,1.19c-0.3,0.36-0.73,0.61-1.29,0.77c-0.21,0.06-0.43,0.1-0.69,0.12
				c-0.25,0.01-0.49,0.02-0.7,0.02h-4.9v-6.7h4.9c0.21,0,0.45,0.01,0.7,0.02c0.25,0.02,0.48,0.06,0.69,0.12
				c0.55,0.16,0.99,0.41,1.29,0.77c0.3,0.35,0.52,0.75,0.63,1.19c0.12,0.43,0.18,0.86,0.18,1.25
				C904.84,28.35,904.78,28.77,904.66,29.2"/>
			<path class="st6" d="M925.85,34.33c0,0.71-0.12,1.36-0.35,1.94c-0.24,0.59-0.57,1.1-1,1.52c-0.42,0.42-0.91,0.74-1.48,0.97
				c-0.58,0.24-1.19,0.35-1.85,0.35c-0.65,0-1.25-0.11-1.82-0.34c-0.58-0.23-1.07-0.55-1.5-0.97c-0.42-0.42-0.76-0.93-1-1.52
				c-0.24-0.58-0.36-1.23-0.36-1.95V20.76l-4.18,0.02v13.58c0,1.75,0.37,3.26,1.12,4.55c0.74,1.29,1.78,2.29,3.12,3
				c1.33,0.71,2.87,1.07,4.62,1.07c1.76,0,3.3-0.36,4.62-1.07c1.34-0.71,2.37-1.71,3.12-3c0.75-1.29,1.12-2.81,1.12-4.55v-13.6
				h-4.18V34.33z"/>
			<polygon class="st6" points="948.35,38.69 938.97,38.69 938.97,20.76 934.87,20.76 934.87,42.53 948.35,42.53 			"/>
			<rect x="951.53" y="20.76" class="st6" width="4.1" height="21.76"/>
			<polygon class="st6" points="964.59,33.55 974.31,33.55 974.31,42.53 978.43,42.53 978.43,20.76 974.31,20.76 974.31,29.71 
				964.59,29.71 964.59,20.76 960.47,20.76 960.47,42.53 964.59,42.53 			"/>
			<polygon class="st6" points="896.46,52.48 892.35,52.48 892.35,74.24 905.83,74.24 905.83,70.4 896.46,70.4 			"/>
			<polygon class="st6" points="922.91,70.4 912.81,70.4 912.81,64.8 921.1,64.8 921.1,60.98 912.81,60.98 912.81,56.31 
				922.91,56.31 922.91,52.48 908.71,52.48 908.71,74.24 922.91,74.24 			"/>
			<path class="st6" d="M940.17,73.4c0.99-0.55,1.71-1.33,2.19-2.31c0.48-0.99,0.72-2.13,0.72-3.43c0-1.22-0.35-2.31-1.02-3.29
				c-0.51-0.71-1.17-1.24-2.04-1.58c0.48-0.29,0.9-0.67,1.23-1.17c0.55-0.81,0.83-1.83,0.83-3.04c0-0.95-0.23-1.9-0.67-2.84
				c-0.43-0.94-1.14-1.72-2.09-2.34c-0.96-0.63-2.22-0.93-3.77-0.93h-8.7v21.77h9.64C937.97,74.24,939.2,73.96,940.17,73.4
				 M931.01,56.32h4.48c0.78,0,1.39,0.23,1.81,0.68c0.41,0.46,0.61,1.01,0.61,1.69c0,0.53-0.11,0.96-0.31,1.3
				c-0.22,0.34-0.51,0.59-0.87,0.75c-0.36,0.17-0.77,0.25-1.24,0.25h-4.48V56.32z M931.01,70.38V64.8h5.06
				c0.64,0,1.17,0.12,1.59,0.36c0.43,0.24,0.76,0.55,0.96,0.96c0.22,0.4,0.31,0.85,0.31,1.37c0,0.59-0.12,1.1-0.36,1.52
				c-0.25,0.43-0.59,0.76-1.02,1c-0.43,0.24-0.93,0.36-1.48,0.36H931.01z"/>
			<rect x="946.71" y="52.48" class="st6" width="4.12" height="21.76"/>
			<polygon class="st6" points="959.77,65.26 969.51,65.26 969.51,74.24 973.61,74.24 973.61,52.48 969.51,52.48 969.51,61.42 
				959.77,61.42 959.77,52.48 955.65,52.48 955.65,74.24 959.77,74.24 			"/>
			<path class="st6" d="M1003.73,67.8l-4.14-1.14c-0.41,1.31-1.08,2.34-2.05,3.07c-0.95,0.73-2.19,1.1-3.71,1.1
				c-1.37,0-2.53-0.3-3.44-0.92c-0.93-0.61-1.63-1.48-2.08-2.6c-0.47-1.12-0.7-2.43-0.7-3.95c0-1.52,0.23-2.83,0.7-3.95
				c0.46-1.12,1.16-1.99,2.08-2.6c0.92-0.61,2.07-0.91,3.44-0.91c1.52,0,2.76,0.36,3.71,1.1c0.96,0.72,1.64,1.76,2.05,3.07
				l4.14-1.14c-0.7-2.12-1.89-3.79-3.59-5.03c-1.71-1.24-3.8-1.87-6.31-1.87c-2.17,0-4.04,0.47-5.62,1.42
				c-1.58,0.95-2.79,2.27-3.65,3.97c-0.85,1.71-1.28,3.68-1.28,5.95c0,2.25,0.42,4.24,1.28,5.94c0.85,1.71,2.07,3.03,3.65,3.98
				c1.58,0.94,3.45,1.42,5.62,1.42c2.5,0,4.6-0.63,6.31-1.87C1001.84,71.59,1003.04,69.92,1003.73,67.8"/>
			<polygon class="st6" points="1007.36,74.24 1021.57,74.24 1021.57,70.4 1011.47,70.4 1011.47,64.8 1019.76,64.8 1019.76,60.98 
				1011.47,60.98 1011.47,56.32 1021.57,56.32 1021.57,52.48 1007.36,52.48 			"/>
			<path class="st6" d="M1029.62,66.86h5.08c0.19,0,0.48-0.01,0.84-0.02c0.36-0.02,0.69-0.05,0.96-0.1c1.29-0.2,2.36-0.63,3.19-1.29
				c0.83-0.65,1.45-1.47,1.84-2.47c0.4-0.99,0.59-2.09,0.59-3.31c0-1.23-0.19-2.33-0.59-3.32c-0.38-1-1-1.82-1.83-2.47
				c-0.83-0.66-1.9-1.08-3.2-1.29c-0.28-0.05-0.6-0.09-0.95-0.1c-0.36-0.02-0.65-0.02-0.85-0.02h-9.2v21.76h4.12V66.86z
				 M1029.62,56.32h4.9c0.2,0,0.43,0.01,0.69,0.02c0.25,0.02,0.48,0.06,0.7,0.12c0.55,0.16,0.99,0.41,1.29,0.77
				c0.3,0.35,0.51,0.75,0.63,1.19c0.12,0.43,0.17,0.86,0.17,1.25c0,0.39-0.05,0.81-0.17,1.24c-0.12,0.44-0.32,0.84-0.63,1.19
				c-0.3,0.36-0.73,0.61-1.29,0.77c-0.22,0.06-0.44,0.1-0.7,0.12c-0.25,0.01-0.48,0.02-0.69,0.02h-4.9V56.32z"/>
			<path class="st6" d="M1056.24,69.7l1.4,4.54h4.24l-6.66-21.76h-6.14l-6.65,21.76h4.23l1.38-4.54H1056.24z M1052.11,56.32
				l2.94,9.55h-5.84L1052.11,56.32z"/>
			<polygon class="st6" points="1068.12,74.24 1072.24,74.24 1072.24,56.32 1079.1,56.32 1079.1,52.48 1061.26,52.48 1061.26,56.32 
				1068.12,56.32 			"/>
		</g>
		<g>
			<path class="st6" d="M905.55,97.76c0.48-0.29,0.88-0.69,1.22-1.17c0.54-0.81,0.82-1.82,0.82-3.04c0-0.95-0.21-1.9-0.66-2.84
				c-0.44-0.93-1.14-1.71-2.11-2.34c-0.95-0.61-2.2-0.93-3.76-0.93h-8.72v21.76H902c1.48,0,2.71-0.28,3.68-0.83
				c0.97-0.57,1.71-1.33,2.18-2.32c0.48-0.99,0.72-2.13,0.72-3.43c0-1.22-0.33-2.3-1.02-3.29
				C907.07,98.63,906.41,98.11,905.55,97.76 M896.52,91.28H901c0.78,0,1.38,0.23,1.79,0.69c0.41,0.45,0.63,1.01,0.63,1.67
				c0,0.53-0.11,0.97-0.32,1.31c-0.21,0.34-0.49,0.58-0.86,0.75c-0.36,0.16-0.78,0.24-1.24,0.24h-4.48V91.28z M904.07,104
				c-0.24,0.42-0.58,0.76-1.02,0.99c-0.43,0.24-0.93,0.36-1.48,0.36h-5.04v-5.56h5.04c0.64,0,1.17,0.12,1.6,0.35
				c0.42,0.24,0.75,0.57,0.96,0.96c0.21,0.41,0.31,0.87,0.31,1.37C904.44,103.06,904.32,103.56,904.07,104"/>
			<path class="st6" d="M917.05,87.44l-6.64,21.77h4.22l1.37-4.53h8.21l1.4,4.53h4.24l-6.66-21.77H917.05z M917.17,100.84l2.91-9.55
				l2.94,9.55H917.17z"/>
			<polygon class="st6" points="946.5,101.96 937.04,87.45 932.87,87.45 932.87,109.21 937.04,109.21 937.04,94.7 946.5,109.21 
				950.67,109.21 950.67,87.45 946.5,87.45 			"/>
			<path class="st6" d="M974.53,97.7h-7.84v3.17h3.46c-0.23,1.16-0.6,2.09-1.12,2.83c-0.53,0.73-1.17,1.28-1.93,1.61
				c-0.77,0.35-1.61,0.51-2.55,0.49c-1.39-0.02-2.53-0.34-3.44-0.95c-0.92-0.61-1.61-1.48-2.07-2.59c-0.46-1.11-0.68-2.42-0.68-3.94
				c0-1.5,0.23-2.83,0.68-3.96c0.46-1.13,1.16-2,2.07-2.61c0.91-0.61,2.06-0.92,3.44-0.89c1.39,0.01,2.53,0.4,3.43,1.16
				c0.89,0.76,1.53,1.78,1.92,3.05l4.2-0.6c-0.54-2.38-1.63-4.22-3.23-5.52c-1.6-1.3-3.8-1.95-6.61-1.95
				c-1.89,0-3.61,0.44-5.18,1.34c-1.55,0.89-2.79,2.18-3.72,3.87c-0.91,1.69-1.37,3.73-1.37,6.14c0,1.85,0.27,3.48,0.82,4.89
				c0.55,1.41,1.3,2.6,2.25,3.55c0.95,0.96,2.05,1.69,3.29,2.17c1.24,0.49,2.55,0.74,3.91,0.74c2.11,0,3.92-0.46,5.47-1.36
				c1.54-0.91,2.73-2.18,3.57-3.79c0.85-1.61,1.28-3.47,1.28-5.55c0-0.05-0.01-0.24-0.01-0.58
				C974.56,98.06,974.55,97.82,974.53,97.7"/>
			<polygon class="st6" points="995.33,87.44 990.31,87.44 982.03,97.48 982.03,87.44 977.91,87.44 977.91,109.21 982.03,109.21 
				982.03,99.3 990.71,109.21 995.91,109.21 986.23,98.18 			"/>
			<rect x="998.63" y="87.45" class="st6" width="4.1" height="21.76"/>
			<polygon class="st6" points="1005.76,91.28 1012.62,91.28 1012.62,109.21 1016.73,109.21 1016.73,91.28 1023.6,91.28 
				1023.6,87.44 1005.76,87.44 			"/>
			<polygon class="st6" points="896.46,117.15 892.35,117.15 892.35,138.91 905.84,138.91 905.84,135.08 896.46,135.08 			"/>
			<polygon class="st6" points="908.71,138.91 922.92,138.91 922.92,135.08 912.82,135.08 912.82,129.48 921.11,129.48 
				921.11,125.65 912.82,125.65 912.82,120.99 922.92,120.99 922.92,117.15 908.71,117.15 			"/>
			<path class="st6" d="M940.04,127.46c0.48-0.29,0.89-0.69,1.23-1.17c0.54-0.81,0.82-1.82,0.82-3.04c0-0.95-0.21-1.9-0.66-2.84
				c-0.44-0.93-1.14-1.71-2.11-2.34c-0.95-0.61-2.22-0.93-3.77-0.93h-8.7v21.76h9.64c1.48,0,2.71-0.28,3.7-0.83
				c0.97-0.57,1.7-1.33,2.18-2.32c0.48-0.99,0.72-2.13,0.72-3.43c0-1.22-0.33-2.3-1.02-3.29
				C941.57,128.33,940.89,127.8,940.04,127.46 M931.03,120.99h4.46c0.8,0,1.4,0.23,1.81,0.69c0.41,0.45,0.61,1.01,0.61,1.67
				c0,0.53-0.1,0.97-0.31,1.31c-0.22,0.34-0.49,0.58-0.87,0.75c-0.36,0.16-0.77,0.24-1.24,0.24h-4.46V120.99z M938.57,133.7
				c-0.25,0.42-0.59,0.76-1.02,0.99c-0.43,0.24-0.93,0.36-1.48,0.36h-5.04v-5.56h5.04c0.64,0,1.17,0.12,1.6,0.35
				c0.42,0.24,0.75,0.57,0.95,0.96c0.21,0.41,0.32,0.87,0.32,1.37C938.95,132.76,938.81,133.26,938.57,133.7"/>
			<rect x="946.71" y="117.15" class="st6" width="4.12" height="21.76"/>
			<polygon class="st6" points="969.51,126.1 959.77,126.1 959.77,117.15 955.67,117.15 955.67,138.91 959.77,138.91 959.77,129.94 
				969.51,129.94 969.51,138.91 973.61,138.91 973.61,117.15 969.51,117.15 			"/>
			<polygon class="st6" points="1001.24,117.15 996.22,117.15 987.94,127.19 987.94,117.15 983.83,117.15 983.83,138.91 
				987.94,138.91 987.94,129 996.62,138.91 1001.82,138.91 992.14,127.88 			"/>
			<path class="st6" d="M1017.78,130.73c0,0.7-0.12,1.35-0.35,1.94c-0.24,0.58-0.57,1.08-1,1.5c-0.42,0.42-0.91,0.76-1.48,0.99
				c-0.58,0.23-1.19,0.35-1.85,0.35c-0.65,0-1.25-0.12-1.82-0.35c-0.58-0.22-1.07-0.54-1.5-0.97c-0.42-0.42-0.76-0.93-1-1.51
				c-0.24-0.59-0.36-1.24-0.36-1.95v-13.58l-4.18,0.04v13.57c0,1.75,0.37,3.26,1.12,4.55c0.74,1.3,1.78,2.3,3.12,3.01
				c1.33,0.71,2.87,1.06,4.62,1.06c1.76,0,3.3-0.35,4.62-1.06c1.34-0.71,2.37-1.71,3.12-3.01c0.75-1.29,1.12-2.8,1.12-4.55v-13.6
				h-4.18V130.73z"/>
			<path class="st6" d="M1030.72,117.15l-6.64,21.77h4.22l1.37-4.53h8.21l1.4,4.53h4.24l-6.65-21.77H1030.72z M1030.84,130.54
				l2.91-9.55l2.94,9.55H1030.84z"/>
			<polygon class="st6" points="1042.91,117.15 1042.91,120.99 1049.77,120.99 1049.77,138.91 1053.88,138.91 1053.88,120.99 
				1060.75,120.99 1060.75,117.15 			"/>
		</g>
	</g>
</g>
</svg>
